<?xml version="1.0" standalone="no"?>
<!DOCTYPE svg PUBLIC "-//W3C//DTD SVG 20010904//EN"
 "http://www.w3.org/TR/2001/REC-SVG-20010904/DTD/svg10.dtd">
<svg version="1.0" xmlns="http://www.w3.org/2000/svg"
 width="6001.000000pt" height="4001.000000pt" viewBox="0 0 6001.000000 4001.000000"
 preserveAspectRatio="xMidYMid meet">

<g transform="translate(0.000000,4001.000000) scale(0.100000,-0.100000)"
fill="#035845" stroke="none">
<path d="M58334 39122 c-28 -22 -47 -61 -123 -252 -34 -85 -68 -163 -76 -174
-13 -18 -22 -14 -160 78 -230 152 -260 163 -306 116 -36 -35 -38 -79 -6 -114
12 -14 67 -54 122 -90 226 -146 265 -176 265 -201 0 -25 -12 -56 -77 -195 -57
-122 -68 -165 -64 -243 1 -23 57 -56 84 -49 55 13 93 74 152 243 39 113 58
149 79 149 8 0 86 -48 175 -106 186 -122 215 -132 261 -86 16 17 30 40 30 51
0 49 -26 73 -207 191 -101 66 -186 127 -190 136 -3 8 34 111 82 229 97 239
104 275 60 312 -31 27 -72 29 -101 5z"/>
<path d="M33931 38953 c-18 -9 -88 -66 -155 -127 -162 -149 -515 -462 -821
-731 -262 -230 -437 -394 -487 -458 -17 -21 -32 -54 -35 -76 -5 -36 -4 -39 33
-53 24 -10 91 -18 169 -23 72 -3 148 -8 170 -10 22 -2 101 -6 175 -10 74 -3
158 -8 185 -10 28 -2 118 -7 200 -10 83 -3 170 -8 195 -10 25 -3 108 -7 185
-11 77 -3 154 -7 170 -9 42 -4 389 -19 452 -19 28 0 59 6 67 13 38 32 32 65
-94 497 -261 901 -292 997 -336 1041 -27 27 -29 27 -73 6z m80 -551 c33 -109
99 -330 145 -492 47 -162 87 -304 90 -314 6 -18 -1 -19 -206 -11 -117 4 -222
8 -234 10 -12 2 -93 6 -181 10 -88 3 -180 8 -205 10 -25 2 -94 7 -155 10 -109
6 -300 20 -425 31 -36 3 -68 9 -72 13 -3 3 251 237 565 519 l572 514 23 -52
c12 -28 50 -140 83 -248z"/>
<path d="M19485 38581 c-137 -37 -256 -144 -338 -307 -54 -108 -71 -175 -71
-289 -1 -84 3 -108 22 -150 45 -98 103 -138 202 -139 227 -3 469 300 471 589
0 133 -45 236 -120 274 -44 23 -123 33 -166 22z"/>
<path d="M39524 38550 c-45 -18 -76 -99 -76 -204 -1 -95 24 -174 74 -230 51
-59 106 -80 196 -74 87 4 154 37 317 154 214 153 257 170 307 117 14 -16 53
-70 87 -120 70 -104 108 -141 184 -180 44 -23 64 -28 133 -28 71 0 87 4 145
33 35 18 116 76 179 128 138 115 179 139 213 123 13 -6 65 -60 117 -120 153
-179 220 -223 335 -224 90 0 138 26 284 151 126 108 139 122 150 161 10 35 -8
87 -34 97 -57 22 -99 0 -222 -114 -99 -93 -161 -128 -207 -116 -37 9 -78 48
-185 175 -115 136 -169 173 -254 173 -74 -1 -171 -53 -302 -162 -60 -51 -127
-101 -149 -112 -90 -46 -150 -16 -246 123 -96 138 -144 186 -200 203 -108 32
-211 -7 -453 -171 -217 -147 -262 -160 -294 -85 -12 30 -14 59 -9 153 l7 117
-27 21 c-29 23 -38 24 -70 11z"/>
<path d="M46501 38390 c-239 -83 -424 -308 -498 -608 -12 -48 -17 -110 -17
-217 1 -130 4 -160 25 -230 99 -323 368 -500 754 -497 275 2 533 130 681 338
225 315 141 691 -191 855 -110 54 -210 68 -321 45 -241 -49 -403 -235 -404
-463 0 -185 135 -324 317 -325 134 -1 233 96 233 228 0 56 -24 99 -66 119 -42
20 -67 19 -94 -3 -17 -14 -21 -28 -21 -75 0 -93 -48 -122 -120 -74 -38 25 -79
97 -79 139 0 47 39 134 81 181 196 223 592 67 613 -241 9 -126 -41 -241 -154
-354 -207 -204 -534 -256 -799 -126 -83 40 -198 152 -234 228 -45 94 -60 173
-54 280 19 300 216 595 445 667 96 31 132 98 76 142 -36 28 -73 26 -173 -9z"/>
<path d="M18595 38398 c-148 -32 -261 -254 -250 -493 11 -233 133 -406 284
-405 171 1 308 229 296 490 -13 272 -154 445 -330 408z"/>
<path d="M26765 38112 c-52 -25 -78 -54 -109 -122 -128 -282 83 -740 341 -740
143 0 234 127 234 327 0 182 -69 354 -188 464 -66 62 -105 81 -178 86 -45 3
-70 -1 -100 -15z"/>
<path d="M52669 38068 c-49 -25 -93 -62 -191 -160 -206 -208 -241 -211 -400
-36 -151 167 -171 181 -271 180 -97 0 -204 -63 -392 -231 -99 -88 -171 -139
-208 -145 -55 -9 -87 54 -87 174 -1 77 -14 140 -32 151 -24 16 -74 10 -93 -11
-27 -30 -42 -105 -38 -183 12 -202 143 -324 311 -289 76 16 144 59 275 176
148 132 223 186 256 186 34 -1 55 -18 136 -115 80 -95 115 -125 187 -162 45
-24 65 -28 133 -28 117 0 171 29 305 164 144 145 187 181 216 181 16 0 53 -26
115 -82 201 -184 249 -212 359 -213 65 0 82 4 125 29 53 32 231 210 278 278
34 51 35 91 2 123 -53 53 -109 27 -220 -104 -91 -107 -134 -141 -183 -148 -47
-6 -81 16 -219 145 -170 160 -239 182 -364 120z"/>
<path d="M20105 38070 c-265 -55 -517 -342 -498 -570 11 -129 84 -199 219
-208 219 -14 494 190 575 426 26 76 27 177 2 233 -45 100 -161 147 -298 119z"/>
<path d="M25865 38058 c-201 -70 -188 -373 25 -601 124 -132 252 -198 388
-199 142 -1 221 72 230 215 9 143 -54 284 -188 417 -89 90 -162 135 -259 164
-61 18 -151 20 -196 4z"/>
<path d="M12035 38017 c-194 -77 -356 -283 -416 -532 -31 -127 -32 -324 -1
-447 97 -390 404 -598 811 -549 308 38 563 211 686 466 150 311 64 623 -211
767 -222 117 -465 87 -630 -78 -66 -66 -113 -150 -134 -243 -17 -73 -6 -191
25 -258 108 -238 471 -248 530 -15 22 85 5 157 -46 195 -35 25 -95 25 -121 -1
-23 -22 -27 -77 -8 -111 9 -18 8 -27 -4 -47 -33 -49 -99 -43 -157 14 -65 65
-71 150 -18 259 34 71 80 115 159 152 46 22 68 26 135 25 48 -1 98 -8 125 -18
107 -40 199 -131 235 -235 21 -62 19 -175 -5 -255 -25 -80 -103 -199 -172
-261 -70 -63 -172 -122 -265 -153 -68 -23 -95 -26 -213 -27 -106 0 -147 4
-190 19 -176 60 -294 173 -351 336 -20 56 -23 85 -24 215 0 127 3 162 23 229
55 192 157 330 305 418 67 39 78 111 22 136 -31 14 -51 14 -90 -1z"/>
<path d="M1909 37907 c-41 -21 -139 -75 -813 -449 -375 -208 -460 -265 -479
-320 -10 -28 35 -71 176 -170 140 -98 629 -448 962 -690 443 -320 572 -390
605 -327 23 42 23 41 -140 994 -158 922 -159 931 -182 960 -25 32 -70 33 -129
2z m6 -229 c12 -59 80 -447 130 -748 30 -184 59 -360 64 -390 22 -129 43 -301
37 -307 -3 -3 -14 1 -23 9 -10 9 -205 147 -433 308 -364 257 -787 557 -799
567 -3 2 4 10 15 18 26 21 277 171 394 236 272 151 596 328 602 329 4 0 10
-10 13 -22z"/>
<path d="M19025 37453 c-16 -2 -100 -22 -185 -43 -85 -22 -209 -47 -275 -55
-266 -36 -430 -119 -491 -250 -60 -127 3 -276 142 -336 24 -10 118 -34 209
-53 280 -59 333 -100 469 -365 50 -97 102 -185 123 -206 72 -74 194 -106 276
-72 168 71 229 304 171 647 -2 14 -6 113 -9 220 -3 107 -11 220 -17 250 -37
193 -195 293 -413 263z"/>
<path d="M25415 37406 c-71 -17 -130 -53 -162 -99 -25 -36 -28 -49 -28 -121 0
-65 5 -91 24 -129 94 -192 338 -337 566 -337 106 0 171 20 228 70 52 46 68 86
68 165 0 164 -188 359 -418 432 -88 28 -205 36 -278 19z"/>
<path d="M19995 37166 c-244 -56 -418 -224 -403 -388 7 -71 49 -125 131 -167
60 -31 77 -35 171 -39 131 -6 226 14 339 71 96 48 187 132 218 203 22 50 27
132 10 176 -18 47 -70 95 -133 123 -54 24 -78 29 -168 32 -65 1 -128 -3 -165
-11z"/>
<path d="M27170 37135 c-101 -17 -200 -24 -355 -26 -212 -3 -297 -30 -382
-122 -22 -24 -50 -70 -63 -103 -31 -83 -24 -183 29 -386 23 -87 48 -205 56
-263 20 -140 30 -183 65 -274 75 -192 213 -288 356 -246 112 32 178 128 209
300 60 340 102 401 375 540 189 96 249 149 275 240 45 152 -43 283 -221 330
-78 21 -250 26 -344 10z"/>
<path d="M7195 36944 c-192 -46 -467 -111 -610 -145 -385 -91 -495 -131 -495
-178 0 -27 49 -97 172 -247 63 -76 213 -263 333 -414 120 -151 306 -385 414
-520 210 -265 349 -415 393 -425 68 -17 81 16 108 271 24 220 25 232 39 354 6
47 17 155 26 240 9 85 18 171 20 190 2 19 9 85 15 145 5 61 15 148 20 195 24
201 50 462 51 520 2 79 -18 101 -90 99 -25 -1 -203 -39 -396 -85z m295 -156
c0 -24 -5 -86 -10 -138 -6 -52 -12 -117 -15 -145 -51 -517 -116 -1064 -133
-1129 l-8 -29 -46 54 c-33 40 -842 1040 -911 1127 -13 17 -7 21 60 44 90 30
995 250 1056 257 4 1 7 -18 7 -41z"/>
<path d="M25715 36560 c-113 -23 -224 -88 -272 -161 -38 -57 -43 -138 -13
-202 89 -188 451 -268 696 -153 127 60 187 133 187 231 0 168 -201 297 -458
294 -55 -1 -118 -5 -140 -9z"/>
<path d="M57392 35280 c-74 -16 -163 -71 -242 -150 -202 -201 -262 -511 -126
-646 192 -193 597 93 656 463 17 105 -7 220 -58 276 -45 50 -145 75 -230 57z"/>
<path d="M56452 35178 c-95 -46 -188 -194 -218 -347 -40 -205 18 -416 136
-496 39 -26 54 -30 110 -30 77 0 137 30 195 97 165 192 181 567 31 726 -68 73
-167 92 -254 50z"/>
<path d="M57900 34694 c-137 -36 -292 -143 -375 -259 -147 -205 -116 -406 70
-460 106 -31 256 -3 385 72 132 78 271 247 295 362 22 103 -4 194 -71 249 -63
52 -187 67 -304 36z"/>
<path d="M38320 34554 c-93 -40 -139 -129 -141 -271 -2 -137 33 -249 117 -374
127 -192 328 -281 458 -205 84 49 118 124 119 261 1 145 -43 271 -142 405
-113 154 -294 235 -411 184z"/>
<path d="M39238 34377 c-81 -31 -153 -122 -191 -241 -29 -93 -31 -280 -3 -371
39 -131 106 -222 191 -261 83 -39 156 -27 231 39 49 43 104 147 124 236 16 68
16 209 0 286 -26 130 -107 257 -190 300 -44 23 -118 28 -162 12z"/>
<path d="M56810 34209 c-36 -4 -119 -13 -185 -22 -66 -8 -183 -18 -260 -22
-173 -7 -259 -25 -352 -70 -187 -92 -239 -270 -118 -413 42 -50 98 -78 277
-136 179 -58 220 -79 290 -150 53 -55 93 -131 143 -276 47 -134 76 -191 121
-236 51 -50 107 -74 178 -74 103 0 184 57 241 169 48 96 56 149 65 427 4 144
10 266 14 272 13 21 15 219 2 274 -43 186 -193 278 -416 257z"/>
<path d="M37663 34044 c-23 -8 -59 -35 -81 -58 -76 -82 -77 -205 -5 -356 53
-111 187 -242 303 -298 259 -124 461 -49 462 172 1 203 -200 450 -431 529 -74
26 -193 31 -248 11z"/>
<path d="M57775 33824 c-11 -2 -45 -9 -75 -15 -30 -6 -92 -28 -138 -50 -178
-86 -261 -229 -203 -354 104 -225 579 -230 792 -8 55 57 77 97 85 157 17 120
-86 226 -255 262 -62 13 -161 17 -206 8z"/>
<path d="M32335 33774 c-69 -35 -126 -111 -161 -214 -27 -78 -27 -299 0 -385
70 -228 212 -356 361 -325 173 36 274 297 219 568 -31 156 -130 309 -229 353
-50 23 -149 25 -190 3z"/>
<path d="M31555 33539 c-52 -20 -94 -58 -122 -112 -35 -68 -44 -218 -19 -318
45 -181 181 -360 322 -425 200 -93 358 25 357 266 -1 167 -70 328 -197 455
-55 55 -100 91 -138 109 -65 30 -158 41 -203 25z"/>
<path d="M38740 33431 c-111 -34 -194 -124 -229 -246 -6 -22 -14 -123 -17
-225 -2 -102 -12 -254 -21 -337 -26 -236 -1 -379 83 -490 59 -77 169 -110 265
-78 89 30 142 93 235 280 63 126 90 171 134 216 86 88 140 111 363 155 71 14
153 36 182 49 138 61 200 205 141 331 -62 133 -219 216 -472 249 -124 16 -144
20 -350 71 -141 34 -254 43 -314 25z"/>
<path d="M33138 33292 c-139 -51 -257 -206 -303 -399 -24 -98 -17 -247 14
-318 75 -171 255 -193 405 -50 111 107 175 257 183 432 5 85 2 112 -16 173
-28 90 -83 150 -153 168 -60 15 -73 15 -130 -6z"/>
<path d="M43489 33188 c-11 -20 -7 -241 5 -303 2 -11 7 -74 11 -140 4 -66 9
-127 10 -135 2 -8 6 -69 9 -135 4 -66 9 -131 11 -145 2 -14 7 -79 10 -145 3
-66 8 -140 10 -165 3 -25 7 -88 10 -140 31 -553 59 -739 118 -774 30 -18 77
19 194 154 311 357 1098 1279 1114 1305 11 17 19 38 19 48 0 30 -50 71 -120
100 -106 43 -957 376 -1060 414 -237 88 -319 103 -341 61z m265 -229 c146 -45
991 -373 1001 -389 9 -14 -785 -940 -918 -1069 l-55 -53 -6 48 c-3 27 -8 92
-11 144 -3 52 -8 120 -10 150 -7 89 -13 157 -30 380 -10 124 -15 192 -25 325
-6 77 -12 160 -14 185 -3 25 -8 92 -11 150 -3 58 -8 115 -11 128 -6 28 5 28
90 1z"/>
<path d="M37744 33159 c-119 -15 -212 -69 -251 -143 -45 -87 -5 -217 95 -306
237 -212 667 -211 756 2 20 47 20 81 0 148 -23 77 -129 183 -234 233 -117 56
-252 80 -366 66z"/>
<path d="M31198 32697 c-153 -43 -198 -195 -111 -373 59 -121 220 -257 361
-306 94 -32 229 -33 289 -1 162 87 141 318 -47 503 -112 110 -239 171 -380
184 -41 3 -83 1 -112 -7z"/>
<path d="M49285 32681 c-178 -83 -194 -392 -33 -648 56 -89 163 -186 235 -213
66 -25 145 -28 195 -7 109 46 166 200 139 376 -50 322 -336 584 -536 492z"/>
<path d="M15747 32586 c-188 -78 -345 -245 -423 -454 -49 -128 -64 -223 -60
-377 4 -160 18 -220 77 -341 124 -253 390 -389 728 -371 130 7 240 35 349 89
169 83 289 202 367 363 51 107 65 166 65 283 -1 179 -86 327 -249 434 -251
164 -567 105 -723 -136 -50 -78 -68 -143 -70 -249 -1 -78 2 -93 31 -151 51
-104 148 -171 261 -179 107 -8 190 36 234 125 58 116 15 238 -84 238 -62 0
-85 -35 -75 -110 6 -45 5 -50 -19 -65 -70 -46 -176 41 -176 146 0 106 72 214
178 266 49 24 69 28 142 28 71 -1 95 -5 144 -28 118 -54 191 -138 221 -252 37
-142 -18 -300 -152 -431 -79 -78 -159 -126 -278 -166 -79 -27 -104 -31 -205
-32 -79 0 -135 5 -179 17 -259 70 -421 271 -421 520 0 179 65 368 176 516 59
79 128 134 219 177 80 37 108 62 108 99 0 67 -80 84 -186 41z"/>
<path d="M32317 32589 c-139 -32 -211 -120 -307 -374 -22 -60 -77 -182 -120
-270 -93 -188 -114 -257 -114 -380 0 -73 4 -100 22 -140 46 -101 108 -140 222
-140 101 1 147 26 291 160 196 183 247 209 409 208 58 -1 154 -10 215 -21 173
-32 270 -17 351 51 80 68 96 197 40 310 -53 104 -184 215 -354 301 -41 20
-144 85 -230 143 -86 58 -181 116 -212 129 -64 26 -156 36 -213 23z"/>
<path d="M50172 32455 c-225 -114 -272 -582 -81 -800 97 -110 255 -104 347 12
73 94 112 217 113 357 0 100 -6 141 -33 222 -64 189 -210 277 -346 209z"/>
<path d="M48630 32211 c-116 -35 -170 -127 -157 -265 30 -316 438 -616 684
-502 174 81 153 354 -44 566 -143 154 -351 241 -483 201z"/>
<path d="M21805 31792 c-59 -12 -1279 -428 -1339 -456 -86 -40 -111 -65 -102
-102 7 -27 46 -69 590 -636 506 -527 773 -791 829 -817 44 -21 49 -22 72 -7
14 10 26 29 29 48 8 51 15 369 22 993 3 314 7 644 8 735 3 178 -4 226 -34 235
-30 10 -54 12 -75 7z m-69 -719 c-9 -720 -18 -973 -36 -973 -14 0 -1071 1093
-1063 1101 26 23 1048 379 1091 379 12 0 14 -72 8 -507z"/>
<path d="M49661 31543 c-67 -17 -109 -42 -155 -93 -81 -90 -92 -135 -111 -462
-4 -53 -8 -107 -10 -120 -65 -364 -43 -536 83 -650 51 -46 100 -62 172 -55
115 10 188 75 279 249 145 276 233 340 511 373 177 21 272 60 326 135 82 113
63 248 -51 348 -88 77 -214 127 -406 161 -64 12 -172 37 -240 57 -238 70 -308
81 -398 57z"/>
<path d="M2892 31309 c-156 -77 -189 -363 -71 -605 98 -202 268 -300 405 -233
50 24 89 71 117 143 32 80 29 254 -6 361 -50 153 -144 274 -252 326 -73 35
-133 38 -193 8z"/>
<path d="M48552 31301 c-205 -71 -228 -272 -50 -436 118 -109 292 -170 464
-163 80 3 100 8 160 38 96 49 129 96 129 188 0 55 -5 76 -30 120 -61 112 -206
213 -363 253 -99 25 -237 25 -310 0z"/>
<path d="M2007 31246 c-102 -28 -166 -133 -154 -255 11 -127 73 -245 187 -362
117 -118 243 -180 370 -181 224 -2 303 198 179 452 -34 70 -58 101 -133 175
-102 101 -196 155 -300 174 -73 13 -88 13 -149 -3z"/>
<path d="M54193 30746 c-41 -36 -35 -87 28 -232 66 -150 73 -205 33 -253 -28
-33 -86 -63 -209 -108 -160 -58 -233 -112 -254 -190 -22 -80 -8 -159 62 -349
25 -66 48 -141 52 -166 13 -83 -37 -141 -151 -175 -38 -12 -108 -33 -156 -47
-96 -29 -139 -59 -168 -117 -45 -86 -36 -210 31 -451 22 -79 42 -169 46 -200
12 -116 -43 -137 -197 -72 -112 48 -133 51 -159 25 -36 -36 -28 -78 23 -127
82 -78 246 -115 353 -80 95 31 154 126 155 245 1 81 -2 95 -57 286 -67 233
-69 282 -16 309 15 8 74 27 131 41 163 41 251 96 308 194 25 42 27 54 26 151
0 101 -2 110 -48 230 -68 178 -80 228 -62 256 10 14 65 41 158 79 324 129 390
232 304 475 -98 282 -152 345 -233 276z"/>
<path d="M25825 30600 c-187 -42 -226 -282 -84 -522 162 -276 490 -398 626
-234 38 47 53 96 53 177 -1 223 -185 476 -408 559 -59 22 -139 31 -187 20z"/>
<path d="M26738 30600 c-122 -38 -188 -163 -189 -355 0 -120 17 -191 71 -302
155 -315 459 -302 519 21 43 233 -67 517 -236 608 -54 29 -124 41 -165 28z"/>
<path d="M1580 30590 c-305 -49 -290 -382 25 -580 182 -115 413 -142 547 -63
18 10 47 38 65 61 136 178 -84 483 -408 567 -70 18 -167 24 -229 15z"/>
<path d="M11306 30348 c-8 -18 -17 -55 -20 -83 -4 -27 -9 -61 -11 -75 -2 -14
-15 -113 -29 -220 -14 -107 -39 -289 -56 -405 -141 -975 -161 -1146 -144
-1219 13 -53 38 -68 84 -52 38 13 74 40 640 470 769 584 898 686 908 714 12
34 2 60 -34 93 -28 25 -935 627 -1069 709 -108 66 -183 100 -220 100 -31 0
-38 -4 -49 -32z m252 -275 c183 -107 872 -561 872 -574 0 -15 -959 -745 -1112
-847 -38 -25 -71 -43 -73 -40 -3 3 1 52 9 109 17 115 36 261 126 929 62 465
65 480 76 480 3 0 49 -26 102 -57z"/>
<path d="M3285 30334 c-38 -7 -140 -16 -225 -19 -309 -13 -375 -30 -465 -120
-106 -106 -123 -213 -66 -425 43 -161 76 -308 95 -423 39 -236 147 -400 290
-438 118 -32 246 44 294 174 12 31 31 114 42 184 49 297 104 368 396 517 132
67 184 109 218 178 32 64 35 152 7 213 -35 78 -125 139 -239 164 -70 15 -259
12 -347 -5z"/>
<path d="M25262 29961 c-232 -80 -189 -382 80 -571 228 -160 510 -170 613 -22
27 39 30 51 30 121 0 105 -40 188 -139 287 -167 167 -412 244 -584 185z"/>
<path d="M1870 29744 c-75 -16 -168 -59 -222 -104 -45 -37 -88 -121 -88 -172
0 -126 131 -239 320 -278 233 -48 488 34 567 183 23 43 23 141 0 185 -81 151
-339 234 -577 186z"/>
<path d="M27040 29588 c-36 -4 -169 -4 -297 -1 -223 6 -234 5 -303 -17 -133
-43 -216 -150 -227 -294 -4 -53 1 -106 20 -206 38 -199 45 -246 52 -340 8
-117 13 -153 36 -240 64 -241 239 -361 405 -277 95 48 133 115 188 330 70 273
131 343 397 452 150 62 180 79 231 132 49 50 70 104 71 178 1 133 -99 230
-278 270 -73 16 -208 22 -295 13z"/>
<path d="M25534 29106 c-74 -14 -155 -50 -210 -92 -42 -31 -84 -117 -84 -169
0 -55 42 -136 93 -181 91 -77 259 -134 400 -134 79 0 202 31 269 67 239 130
166 393 -135 488 -100 32 -233 40 -333 21z"/>
<path d="M58874 28521 c-17 -10 -85 -90 -151 -178 -139 -183 -148 -193 -167
-172 -7 8 -67 75 -133 149 -138 155 -141 158 -181 169 -38 11 -89 -17 -98 -53
-12 -51 5 -77 184 -276 62 -69 117 -132 122 -141 12 -21 -23 -76 -119 -189
-124 -145 -155 -219 -112 -271 26 -33 79 -31 125 4 20 16 75 83 122 150 91
130 109 148 128 141 7 -3 66 -66 131 -140 65 -74 130 -144 143 -155 72 -56
171 20 131 101 -8 16 -75 97 -149 180 -74 84 -139 158 -143 166 -5 9 36 71
131 196 153 201 162 215 162 252 0 38 -10 55 -41 71 -36 19 -48 19 -85 -4z"/>
<path d="M38430 28385 c-274 -57 -511 -436 -434 -694 61 -206 316 -210 519 -7
120 120 192 268 202 416 15 209 -102 324 -287 285z"/>
<path d="M37502 28305 c-93 -42 -167 -136 -216 -275 -27 -76 -30 -98 -30 -210
-1 -141 20 -223 75 -299 121 -168 335 -114 443 111 53 110 69 192 63 323 -7
164 -53 273 -140 331 -51 34 -142 43 -195 19z"/>
<path d="M38893 27786 c-289 -95 -502 -393 -420 -588 68 -161 338 -174 561
-28 283 186 368 505 162 612 -64 34 -208 36 -303 4z"/>
<path d="M33030 27472 c-30 -4 -815 -166 -1080 -222 -324 -70 -401 -97 -408
-148 -4 -28 20 -67 131 -211 50 -64 277 -363 504 -664 530 -703 584 -767 655
-767 52 0 58 25 113 435 14 105 30 226 36 270 5 44 14 109 19 145 5 36 12 83
15 105 2 22 22 175 44 340 84 630 87 664 69 688 -15 20 -62 34 -98 29z m-84
-229 c-6 -35 -14 -91 -21 -163 -3 -30 -12 -102 -20 -160 -8 -58 -21 -159 -29
-225 -57 -445 -120 -857 -135 -883 -5 -9 -58 52 -171 200 -587 767 -759 994
-760 1003 -3 20 233 77 780 190 168 35 318 64 333 64 26 1 28 -2 23 -26z"/>
<path d="M37775 27320 c-173 -22 -264 -30 -400 -34 -214 -6 -346 -45 -441
-128 -103 -91 -110 -252 -15 -353 49 -52 101 -79 253 -129 162 -53 217 -80
278 -134 64 -57 104 -129 164 -298 57 -162 84 -213 140 -261 36 -33 117 -63
166 -63 71 0 154 51 205 124 72 105 88 185 100 521 3 83 12 198 19 257 22 186
10 276 -51 365 -80 119 -207 159 -418 133z"/>
<path d="M44266 26949 c-252 -36 -506 -186 -636 -374 -47 -69 -99 -184 -114
-256 -20 -88 -13 -235 14 -324 12 -38 41 -107 65 -152 129 -244 349 -417 596
-469 96 -20 270 -19 350 1 267 68 429 269 429 530 -1 221 -109 404 -292 490
-191 90 -405 58 -544 -81 -115 -116 -117 -329 -5 -442 53 -52 88 -66 166 -66
109 0 186 50 201 130 19 101 -75 152 -146 79 -40 -41 -59 -43 -97 -11 -24 21
-28 31 -28 78 0 109 82 178 220 186 88 5 163 -21 229 -79 60 -53 91 -108 111
-194 49 -208 -81 -402 -304 -455 -78 -18 -218 -8 -317 24 -322 103 -540 459
-463 755 23 91 56 149 127 224 130 136 330 222 542 234 127 7 199 -9 313 -67
86 -44 111 -48 145 -24 33 23 30 75 -8 117 -40 46 -151 103 -246 127 -89 23
-222 31 -308 19z"/>
<path d="M38740 26919 c-308 -59 -480 -300 -330 -463 71 -77 180 -116 325
-116 115 0 207 20 299 64 254 123 293 365 77 476 -90 45 -250 62 -371 39z"/>
<path d="M7432 26861 c-151 -38 -306 -138 -418 -270 -73 -86 -163 -256 -195
-366 -28 -99 -36 -278 -15 -375 71 -336 416 -575 820 -569 140 2 243 26 361
84 407 198 507 643 211 939 -112 113 -216 156 -372 156 -230 0 -424 -150 -468
-363 -40 -191 90 -372 276 -385 177 -13 316 202 197 302 -60 51 -119 22 -134
-64 -12 -70 -67 -80 -125 -22 -97 97 -36 253 130 331 44 21 70 26 131 26 65 0
85 -5 142 -33 77 -38 148 -111 186 -192 22 -47 26 -69 26 -145 0 -80 -3 -97
-31 -155 -41 -84 -89 -138 -172 -194 -164 -108 -361 -141 -557 -91 -226 57
-413 236 -456 436 -38 175 38 400 194 574 131 147 277 225 441 238 75 6 111
31 111 77 0 24 -7 38 -28 54 -39 29 -156 32 -255 7z"/>
<path d="M19825 25484 c-14 -15 -55 -86 -91 -158 -95 -186 -124 -239 -140
-252 -19 -15 -64 -5 -218 48 -67 22 -148 43 -182 46 -57 4 -64 2 -88 -21 -32
-32 -34 -79 -5 -108 31 -31 90 -54 226 -88 149 -38 173 -47 173 -64 0 -8 -40
-93 -90 -190 -55 -109 -90 -188 -90 -207 0 -66 88 -105 139 -62 11 9 65 105
120 212 55 107 106 196 114 198 8 2 111 -25 228 -59 250 -72 281 -75 315 -36
13 16 24 41 24 56 0 60 -36 78 -297 151 -84 23 -160 48 -170 56 -17 12 -12 25
75 196 108 213 117 245 77 282 -38 35 -88 35 -120 0z"/>
<path d="M54479 25081 c-72 -15 -153 -64 -224 -136 -128 -128 -189 -268 -190
-430 0 -79 3 -96 27 -142 136 -257 555 -35 648 342 37 151 -6 301 -101 350
-33 18 -114 26 -160 16z"/>
<path d="M48484 24786 c-133 -42 -243 -183 -245 -313 -1 -75 23 -125 87 -181
58 -52 123 -76 299 -113 330 -69 339 -77 299 -239 -34 -135 -41 -242 -21 -311
31 -105 111 -182 222 -214 28 -8 103 -22 168 -30 213 -28 255 -43 260 -95 1
-14 -4 -79 -12 -145 -28 -250 0 -374 97 -436 57 -36 89 -45 222 -65 223 -32
300 -21 315 46 15 68 -49 110 -180 117 -113 6 -204 22 -237 41 -34 20 -58 68
-58 118 0 21 7 97 16 169 9 71 14 153 12 180 -12 144 -110 205 -383 240 -136
18 -188 30 -222 52 -59 39 -67 125 -28 293 39 164 31 227 -38 298 -62 66 -158
103 -399 157 -331 74 -338 99 -94 311 40 35 47 70 19 102 -25 28 -51 33 -99
18z"/>
<path d="M55274 24789 c-131 -16 -305 -108 -401 -211 -224 -245 -151 -508 142
-508 75 0 195 29 267 66 226 114 372 332 328 492 -21 80 -100 145 -192 158
-74 10 -81 11 -144 3z"/>
<path d="M53575 24276 c-127 -40 -188 -119 -188 -243 0 -88 46 -166 156 -265
51 -46 116 -108 145 -138 94 -97 140 -227 128 -360 -3 -36 -9 -122 -12 -191
-8 -152 6 -208 69 -276 51 -56 96 -75 173 -76 158 -2 300 138 419 413 25 56
83 168 131 251 114 197 128 234 127 334 0 96 -22 153 -85 221 -56 60 -124 93
-309 150 -85 26 -185 60 -224 76 -161 68 -214 87 -287 102 -91 19 -187 20
-243 2z"/>
<path d="M27855 24260 c-199 -78 -359 -350 -351 -597 3 -80 7 -102 35 -157 36
-73 84 -112 152 -124 101 -18 194 21 300 127 132 133 200 300 195 481 -2 105
-24 171 -74 224 -61 65 -161 83 -257 46z"/>
<path d="M26972 24035 c-119 -61 -192 -219 -193 -420 -2 -207 77 -376 203
-439 85 -43 159 -30 237 40 181 163 186 580 9 763 -49 52 -88 71 -152 78 -42
4 -61 0 -104 -22z"/>
<path d="M55362 24031 c-210 -52 -366 -189 -380 -333 -24 -252 394 -366 720
-196 142 73 221 177 219 288 -1 96 -47 162 -148 214 -92 47 -280 59 -411 27z"/>
<path d="M28530 23790 c-251 -60 -491 -354 -473 -580 12 -147 101 -217 262
-208 260 15 541 309 541 565 0 62 -31 144 -66 175 -57 51 -168 71 -264 48z"/>
<path d="M1654 23641 c-158 -40 -276 -276 -261 -523 12 -188 80 -329 196 -401
55 -34 150 -31 213 6 180 105 257 438 162 695 -60 162 -188 254 -310 223z"/>
<path d="M2463 23465 c-161 -48 -309 -238 -352 -452 -36 -177 -6 -323 83 -400
67 -60 164 -68 261 -23 79 37 182 149 232 250 57 117 76 194 76 315 0 113 -21
183 -72 246 -54 65 -143 89 -228 64z"/>
<path d="M14232 23368 c-73 -12 -134 -49 -212 -128 -236 -236 -268 -644 -59
-751 146 -74 364 57 474 286 156 323 48 638 -203 593z"/>
<path d="M54860 23329 c-83 -14 -178 -66 -214 -116 -44 -63 -48 -143 -12 -217
54 -111 191 -205 357 -248 108 -27 254 -22 343 12 96 37 166 124 166 207 0
137 -172 297 -372 347 -77 20 -201 27 -268 15z"/>
<path d="M13310 23135 c-127 -58 -210 -221 -211 -416 -1 -252 107 -446 264
-474 129 -24 261 108 302 300 49 234 -37 503 -186 580 -46 24 -127 29 -169 10z"/>
<path d="M27507 23129 c-26 -4 -116 -28 -200 -52 -175 -52 -179 -53 -295 -73
-235 -40 -390 -122 -455 -243 -71 -130 -23 -273 116 -341 46 -22 96 -35 197
-50 74 -12 155 -26 180 -32 140 -34 243 -123 324 -278 107 -205 164 -274 254
-304 83 -29 167 -15 235 37 39 29 89 120 107 192 16 67 13 239 -6 355 -8 52
-17 106 -20 120 -2 14 -6 77 -9 140 -14 280 -39 365 -131 450 -78 70 -175 96
-297 79z"/>
<path d="M922 23080 c-103 -23 -162 -114 -170 -263 -7 -146 40 -290 141 -422
121 -160 307 -215 413 -123 97 86 119 261 54 447 -80 233 -279 396 -438 361z"/>
<path d="M28575 22902 c-213 -20 -428 -156 -484 -308 -27 -71 -26 -107 3 -170
40 -86 127 -132 264 -141 387 -25 741 331 530 534 -65 63 -190 97 -313 85z"/>
<path d="M14864 22885 c-204 -43 -418 -247 -474 -454 -26 -99 -8 -214 43 -270
35 -38 115 -71 172 -71 272 0 575 301 575 570 0 169 -132 263 -316 225z"/>
<path d="M2840 22651 c-158 -51 -306 -177 -381 -323 -31 -61 -52 -157 -46
-209 23 -193 223 -251 451 -131 86 45 218 171 264 253 96 170 74 347 -51 405
-64 29 -156 31 -237 5z"/>
<path d="M39754 22487 c-22 -19 -26 -31 -25 -68 1 -47 5 -65 70 -283 23 -76
41 -145 41 -152 0 -17 -27 -22 -230 -39 -239 -21 -260 -29 -260 -107 0 -81 43
-89 324 -63 106 10 200 15 210 12 22 -9 32 -36 72 -200 36 -146 71 -229 103
-247 33 -17 71 -11 98 16 23 23 25 31 20 83 -2 31 -26 123 -53 204 -31 96 -44
151 -38 157 11 11 121 26 264 35 166 11 210 31 210 95 0 75 -37 94 -169 85
-53 -4 -98 -9 -101 -10 -3 -2 -52 -6 -110 -10 -58 -4 -113 -9 -122 -10 -9 -2
-22 2 -28 10 -6 7 -39 111 -74 232 -78 265 -72 250 -107 268 -39 21 -64 19
-95 -8z"/>
<path d="M1759 22437 c-72 -24 -118 -56 -276 -189 -59 -49 -151 -118 -203
-152 -235 -155 -340 -293 -340 -448 0 -81 28 -140 87 -182 99 -70 168 -72 389
-15 277 71 362 56 565 -103 185 -144 232 -168 334 -168 64 0 145 38 181 86 53
69 68 186 39 299 -22 83 -71 185 -153 312 -38 59 -106 181 -152 270 -71 140
-90 171 -141 217 -95 88 -209 113 -330 73z"/>
<path d="M13805 22215 c-33 -7 -121 -31 -195 -53 -74 -23 -194 -52 -265 -66
-205 -40 -322 -88 -404 -167 -144 -139 -114 -345 64 -425 50 -23 82 -29 275
-60 128 -20 194 -43 261 -94 66 -49 108 -107 193 -263 50 -91 84 -141 121
-176 154 -146 364 -81 431 132 27 85 26 249 -1 412 -13 77 -27 201 -30 275
-13 242 -45 346 -131 416 -88 72 -195 96 -319 69z"/>
<path d="M14848 21990 c-239 -41 -451 -221 -450 -384 0 -61 11 -91 47 -135 59
-69 190 -108 325 -96 288 26 534 240 498 434 -26 138 -208 216 -420 181z"/>
<path d="M34065 21236 c-168 -39 -318 -150 -387 -288 -126 -248 -36 -548 199
-665 174 -86 358 -34 440 126 76 146 14 298 -139 341 -96 28 -185 -91 -112
-149 15 -12 34 -21 43 -21 30 0 61 -30 61 -58 0 -83 -126 -130 -219 -82 -54
27 -117 102 -137 163 -57 167 28 347 203 430 60 28 78 32 153 32 71 0 94 -4
140 -26 113 -54 199 -150 249 -279 96 -246 42 -526 -138 -723 -166 -180 -382
-232 -596 -144 -171 70 -355 246 -431 412 -40 87 -54 151 -54 251 0 77 -3 95
-21 118 -21 27 -56 34 -88 16 -52 -27 -68 -209 -32 -352 110 -429 608 -742
1015 -638 213 54 396 227 496 467 154 371 45 801 -253 994 -114 74 -269 103
-392 75z"/>
<path d="M58178 21120 c-41 -42 -38 -55 77 -290 52 -107 95 -202 95 -211 0
-22 -39 -55 -160 -139 -154 -106 -190 -145 -190 -205 0 -31 41 -75 70 -75 39
0 115 45 205 120 50 41 105 86 124 99 l34 24 20 -24 c11 -13 51 -89 89 -169
90 -187 107 -210 159 -210 50 0 89 35 89 79 0 17 -41 112 -100 231 -82 165
-98 205 -89 217 7 8 95 78 196 155 101 77 188 149 193 159 27 49 0 111 -54
125 -37 9 -84 -18 -239 -138 -78 -60 -153 -116 -168 -124 l-28 -14 -88 177
c-48 98 -101 192 -116 210 -38 43 -77 44 -119 3z"/>
<path d="M23507 20179 c-17 -26 -24 -75 -32 -219 -14 -240 -21 -348 -40 -615
-21 -293 -25 -344 -30 -395 -2 -25 -7 -92 -11 -150 -3 -58 -8 -116 -10 -130
-2 -14 -7 -133 -10 -265 -6 -206 -4 -245 9 -277 14 -34 20 -38 51 -38 43 0 49
5 476 379 672 590 1000 882 1010 901 34 64 0 96 -240 230 -206 115 -244 136
-480 270 -317 180 -376 212 -485 266 -60 30 -129 57 -152 60 -36 5 -43 3 -56
-17z m271 -283 c198 -99 902 -494 902 -506 0 -3 -145 -134 -322 -292 -498
-441 -777 -678 -799 -678 -7 0 -9 15 -5 38 3 20 8 87 11 147 3 61 8 137 10
170 3 33 10 141 15 240 6 99 12 198 15 220 2 22 6 94 10 160 3 66 7 138 10
160 2 22 7 94 11 160 4 66 8 131 9 145 2 14 3 40 4 58 1 17 6 32 11 32 6 0 59
-24 118 -54z"/>
<path d="M7792 19999 c-157 -78 -272 -301 -274 -529 -2 -145 36 -255 110 -322
126 -113 308 -51 426 146 189 315 101 735 -155 736 -31 0 -65 -10 -107 -31z"/>
<path d="M8594 19676 c-191 -47 -371 -241 -428 -461 -20 -74 -20 -190 -2 -243
61 -172 250 -198 443 -62 182 127 307 385 276 567 -27 156 -143 235 -289 199z"/>
<path d="M6969 19620 c-204 -107 -206 -543 -4 -767 65 -73 137 -107 215 -101
80 6 132 42 176 123 157 283 -31 767 -297 765 -33 -1 -68 -8 -90 -20z"/>
<path d="M45720 19158 c-34 -12 -81 -59 -151 -149 -101 -130 -168 -159 -248
-106 -20 14 -84 66 -142 117 -164 146 -232 167 -349 108 -46 -23 -86 -55 -144
-117 -174 -183 -202 -209 -242 -220 -63 -17 -122 18 -238 144 -108 116 -155
145 -232 145 -105 -1 -185 -50 -387 -233 -84 -75 -167 -144 -186 -153 -43 -21
-81 -10 -99 28 -17 37 -32 121 -32 187 0 69 -19 101 -60 101 -42 0 -59 -9 -75
-40 -36 -69 -26 -218 20 -309 51 -102 130 -147 239 -139 98 8 164 50 324 201
142 135 189 171 235 183 26 6 37 -3 145 -114 143 -148 194 -177 312 -177 122
0 163 25 344 210 118 122 157 155 177 155 18 0 56 -27 130 -91 175 -153 242
-191 343 -193 95 -2 150 32 271 165 109 120 155 186 155 225 0 31 -27 73 -47
75 -5 0 -15 2 -23 3 -8 2 -26 -1 -40 -6z"/>
<path d="M7680 18824 c-30 -8 -134 -55 -230 -103 -96 -49 -209 -101 -250 -115
-286 -102 -442 -250 -442 -417 0 -111 72 -198 194 -234 47 -13 88 -15 235 -11
107 4 196 2 223 -5 121 -28 202 -89 341 -260 120 -149 178 -188 286 -197 54
-4 70 -1 118 23 100 49 146 142 146 296 -1 103 -19 187 -72 327 -22 58 -60
184 -85 281 -25 97 -55 199 -68 226 -71 155 -231 232 -396 189z"/>
<path d="M8775 18800 c-127 -27 -288 -119 -366 -209 -113 -131 -137 -285 -58
-375 162 -185 618 -40 756 242 23 47 28 70 28 133 0 98 -27 144 -111 185 -62
30 -172 41 -249 24z"/>
<path d="M54149 18041 c-36 -36 -37 -76 -10 -234 28 -166 15 -224 -57 -254
-20 -9 -110 -26 -198 -39 -217 -31 -261 -51 -306 -139 -27 -52 -35 -185 -19
-314 19 -156 20 -174 9 -219 -12 -49 -52 -87 -106 -101 -20 -5 -98 -12 -172
-15 -154 -7 -188 -14 -236 -51 -82 -63 -103 -157 -103 -460 0 -136 -4 -241
-10 -257 -5 -15 -21 -34 -35 -43 -24 -16 -28 -16 -78 8 -29 13 -76 42 -103 64
-28 22 -61 45 -74 52 -51 28 -107 -18 -95 -78 10 -50 95 -135 172 -173 52 -26
82 -34 139 -36 93 -5 150 20 198 87 59 80 67 131 63 394 -4 316 -4 317 170
317 181 0 285 31 364 107 79 77 101 194 75 403 -18 145 -17 224 3 245 10 10
67 22 160 35 230 32 325 68 380 143 55 75 61 167 25 409 -17 113 -32 149 -70
166 -39 18 -54 15 -86 -17z"/>
<path d="M19167 17923 c-56 -16 -109 -74 -134 -147 -27 -79 -22 -220 10 -319
91 -280 333 -452 500 -354 129 76 153 322 52 534 -103 218 -273 331 -428 286z"/>
<path d="M18275 17757 c-60 -20 -93 -45 -121 -93 -136 -231 175 -633 517 -669
217 -23 332 138 255 356 -76 215 -315 401 -533 414 -50 3 -92 0 -118 -8z"/>
<path d="M48713 17504 c-22 -22 -25 -31 -20 -72 3 -26 35 -126 70 -222 90
-240 87 -222 35 -257 -24 -17 -91 -56 -150 -87 -59 -32 -128 -76 -154 -99 -40
-37 -46 -47 -46 -82 0 -28 6 -44 22 -57 49 -39 115 -17 294 101 61 39 117 71
126 71 21 0 30 -20 91 -191 61 -175 78 -210 110 -228 52 -29 119 12 119 74 0
19 -32 123 -70 231 -39 109 -70 204 -68 213 2 8 98 71 213 140 189 114 211
129 221 161 13 41 2 85 -26 100 -47 25 -83 12 -270 -100 -101 -60 -191 -110
-200 -110 -16 0 -25 24 -121 293 -39 110 -68 147 -115 147 -24 0 -43 -8 -61
-26z"/>
<path d="M17907 17050 c-80 -20 -138 -57 -174 -112 -38 -56 -39 -160 -4 -228
106 -203 395 -339 640 -301 159 25 251 110 251 232 0 179 -197 356 -455 410
-105 22 -169 22 -258 -1z"/>
<path d="M19759 17011 c-25 -5 -81 -19 -125 -31 -94 -26 -190 -44 -339 -64
-192 -27 -271 -59 -343 -142 -41 -45 -65 -103 -77 -180 -9 -60 16 -164 80
-324 31 -79 67 -184 81 -234 64 -230 114 -338 198 -421 61 -61 113 -87 184
-93 99 -8 200 53 240 146 26 60 39 138 46 282 14 257 65 340 312 502 186 123
237 190 236 310 -1 105 -51 175 -161 226 -46 21 -72 25 -170 28 -64 2 -137 -1
-162 -5z"/>
<path d="M38077 16919 c-59 -39 -118 -106 -148 -167 -18 -36 -23 -64 -24 -124
0 -69 3 -80 30 -120 37 -52 109 -102 178 -123 29 -9 122 -25 207 -36 205 -27
269 -43 298 -75 26 -30 27 -46 6 -166 -22 -128 -16 -247 17 -312 64 -131 165
-177 419 -191 143 -7 213 -20 231 -41 9 -11 13 -74 14 -222 1 -168 4 -215 18
-250 37 -95 97 -145 201 -167 80 -17 365 -20 399 -4 33 15 53 62 41 97 -18 50
-55 61 -224 65 -172 4 -215 15 -247 63 -16 25 -18 52 -18 244 0 163 -3 221
-14 240 -55 101 -174 147 -393 151 -262 5 -310 58 -273 296 25 154 23 211 -6
264 -59 106 -146 139 -525 197 -176 28 -218 54 -200 126 3 13 44 62 91 108 47
45 88 91 91 100 3 9 -2 31 -11 48 -14 27 -20 30 -64 30 -36 0 -58 -7 -94 -31z"/>
<path d="M29925 16269 c-88 -13 -153 -34 -244 -80 -212 -106 -379 -300 -459
-532 -57 -165 -57 -355 1 -492 89 -215 305 -390 573 -467 114 -32 334 -33 447
0 76 22 182 70 242 111 114 77 219 231 245 358 28 131 -10 300 -96 425 -101
148 -252 228 -430 228 -103 0 -191 -26 -273 -81 -70 -47 -107 -88 -153 -173
-30 -56 -33 -68 -33 -151 0 -102 18 -153 75 -218 73 -84 191 -118 284 -83 64
25 133 101 141 158 10 69 -22 122 -81 134 -39 7 -70 -18 -88 -71 -31 -91 -133
-60 -155 48 -22 103 66 212 204 252 68 20 145 15 212 -15 67 -29 156 -120 189
-193 26 -54 29 -73 29 -157 0 -85 -3 -101 -29 -152 -83 -165 -282 -271 -506
-271 -408 0 -732 337 -659 685 42 197 223 411 437 518 89 44 169 61 281 59
101 -1 133 7 149 39 14 28 -5 80 -36 96 -48 25 -180 37 -267 25z"/>
<path d="M18328 16255 c-140 -35 -263 -120 -304 -210 -90 -191 90 -358 386
-357 162 0 306 50 401 139 62 58 88 111 89 179 0 100 -74 185 -203 233 -80 30
-280 39 -369 16z"/>
<path d="M2312 15829 c-444 -54 -792 -585 -687 -1046 53 -230 229 -411 486
-497 412 -138 850 16 1020 359 89 181 77 363 -38 537 -167 255 -489 323 -736
156 -114 -77 -189 -214 -191 -348 -1 -66 3 -84 32 -142 37 -76 83 -120 160
-156 77 -35 173 -29 234 14 117 82 137 246 35 289 -22 9 -39 10 -59 3 -33 -12
-46 -32 -51 -81 -5 -47 -23 -67 -61 -67 -41 0 -72 22 -96 70 -38 75 -17 163
59 239 103 103 240 123 378 56 83 -41 142 -101 182 -185 22 -47 26 -68 26
-150 0 -77 -4 -104 -23 -144 -136 -296 -557 -416 -887 -252 -207 103 -336 311
-318 511 23 255 217 536 440 637 34 15 102 35 150 43 71 12 92 20 111 41 49
56 17 102 -83 117 -11 2 -49 0 -83 -4z"/>
<path d="M14158 15107 c-18 -18 -55 -75 -83 -127 -27 -52 -71 -116 -96 -142
-69 -73 -104 -67 -286 45 -172 107 -245 127 -328 93 -50 -21 -127 -97 -176
-174 -118 -186 -152 -232 -183 -251 -67 -42 -126 -24 -261 78 -125 96 -168
116 -235 115 -113 -2 -198 -71 -374 -302 -58 -77 -122 -154 -141 -171 -75 -66
-127 -27 -165 124 -28 111 -39 134 -66 141 -60 15 -90 -17 -98 -105 -10 -122
78 -286 179 -332 96 -44 226 -8 316 87 26 27 92 110 147 185 109 147 160 199
195 199 27 0 62 -22 151 -93 157 -126 292 -155 419 -90 71 36 122 93 214 239
46 73 99 146 118 163 34 30 37 30 69 17 19 -8 60 -31 93 -52 99 -63 223 -123
281 -135 107 -22 198 10 265 94 36 44 130 195 164 262 47 92 24 165 -52 165
-26 0 -43 -8 -67 -33z"/>
<path d="M57598 15041 c-106 -34 -168 -142 -168 -292 0 -194 139 -437 300
-524 47 -26 66 -30 131 -30 64 0 81 4 111 25 80 54 114 149 106 296 -14 255
-206 507 -404 528 -27 3 -61 1 -76 -3z"/>
<path d="M56731 14858 c-180 -31 -240 -204 -141 -403 77 -155 253 -300 420
-345 66 -18 187 -15 238 5 95 38 145 144 124 264 -19 104 -65 185 -161 282
-151 151 -327 224 -480 197z"/>
<path d="M56385 14149 c-103 -16 -196 -72 -229 -138 -74 -147 44 -342 271
-447 215 -101 467 -86 574 33 94 104 73 240 -57 369 -138 137 -367 213 -559
183z"/>
<path d="M58243 14138 c-35 -4 -107 -19 -160 -34 -144 -39 -196 -50 -318 -69
-265 -40 -362 -91 -423 -223 -54 -119 -42 -203 68 -467 32 -77 72 -189 89
-250 75 -262 196 -423 343 -457 56 -12 136 6 187 42 84 61 115 159 124 390 11
267 58 343 319 519 155 105 203 167 214 279 5 47 2 68 -16 109 -26 62 -58 93
-130 129 -61 31 -187 44 -297 32z"/>
<path d="M56805 13356 c-143 -33 -256 -100 -315 -187 -32 -47 -35 -58 -35
-125 0 -64 3 -77 30 -116 34 -48 115 -101 190 -124 79 -25 245 -26 339 -3 266
65 406 262 300 420 -33 49 -111 101 -189 125 -69 22 -244 27 -320 10z"/>
<path d="M35581 12604 c-210 -74 -391 -343 -391 -581 0 -130 45 -224 126 -264
159 -77 385 53 509 291 147 285 72 570 -150 569 -27 0 -70 -7 -94 -15z"/>
<path d="M34732 12468 c-164 -29 -283 -257 -269 -512 12 -222 113 -374 256
-384 135 -10 254 112 306 313 19 74 20 251 1 320 -49 186 -162 287 -294 263z"/>
<path d="M24393 12429 c-58 -17 -140 -103 -182 -193 -52 -109 -65 -170 -65
-306 -1 -91 4 -130 21 -185 31 -97 79 -172 137 -214 65 -47 151 -55 220 -22
101 49 190 190 222 351 47 238 -42 502 -192 565 -40 16 -111 18 -161 4z"/>
<path d="M43830 12352 c-40 -32 -37 -83 14 -234 25 -75 46 -153 46 -173 0 -84
-46 -117 -245 -175 -125 -36 -218 -81 -244 -119 -55 -78 -52 -185 9 -396 77
-269 56 -307 -206 -360 -169 -35 -218 -61 -259 -140 -28 -55 -30 -65 -29 -164
1 -74 11 -153 33 -261 39 -195 43 -237 26 -277 -25 -59 -77 -54 -213 18 -82
43 -120 49 -147 19 -71 -78 93 -220 272 -234 69 -5 150 18 189 55 89 83 103
211 49 454 -19 83 -37 179 -40 215 -6 57 -4 68 14 91 22 28 38 33 201 64 205
39 311 139 326 308 5 50 0 85 -25 177 -17 63 -41 154 -52 202 -30 122 -28 125
143 179 278 86 362 153 375 298 9 92 -79 395 -128 444 -32 32 -76 36 -109 9z"/>
<path d="M23589 12350 c-182 -32 -261 -320 -162 -593 68 -189 196 -318 334
-334 100 -12 194 56 239 173 31 78 34 264 7 364 -68 248 -251 419 -418 390z"/>
<path d="M36198 12073 c-34 -7 -101 -31 -148 -54 -115 -57 -241 -181 -294
-289 -73 -149 -70 -263 7 -347 109 -119 345 -88 542 70 188 151 275 368 204
514 -47 97 -163 136 -311 106z"/>
<path d="M25052 11791 c-241 -83 -426 -427 -356 -662 28 -92 113 -159 205
-159 47 0 127 30 189 72 213 142 332 477 234 658 -55 101 -151 133 -272 91z"/>
<path d="M23035 11588 c-245 -86 -157 -488 149 -689 192 -126 395 -95 442 69
50 171 -77 423 -280 554 -103 66 -232 94 -311 66z"/>
<path d="M35025 11490 c-141 -31 -303 -58 -390 -65 -166 -12 -318 -64 -411
-140 -91 -75 -119 -200 -68 -303 48 -96 106 -129 324 -183 297 -75 359 -129
485 -429 78 -187 161 -260 293 -260 72 0 126 25 176 80 71 79 108 198 107 343
-4 353 -11 659 -16 695 -16 106 -94 212 -188 253 -73 32 -193 35 -312 9z"/>
<path d="M24121 11268 c-116 -20 -189 -84 -306 -268 -43 -69 -104 -158 -134
-198 -31 -40 -77 -101 -103 -135 -140 -184 -185 -366 -123 -493 31 -63 79
-101 153 -119 85 -22 167 -3 282 68 36 22 99 61 141 87 174 107 270 110 526
16 175 -64 246 -75 324 -52 112 32 175 121 173 241 -3 145 -92 270 -338 475
-48 41 -122 112 -165 158 -166 184 -287 246 -430 220z"/>
<path d="M36042 11175 c-204 -46 -382 -207 -382 -345 1 -232 370 -322 671
-164 267 141 293 402 49 496 -71 27 -246 34 -338 13z"/>
<path d="M9018 10976 c-200 -72 -369 -322 -370 -551 -2 -228 159 -327 363
-225 179 91 324 343 314 548 -7 152 -86 242 -209 242 -34 -1 -77 -7 -98 -14z"/>
<path d="M50505 10919 c-33 -4 -190 -23 -350 -43 -159 -20 -382 -47 -495 -61
-549 -67 -632 -89 -615 -164 7 -32 19 -51 260 -426 81 -126 247 -387 368 -580
351 -558 437 -680 496 -705 65 -27 82 2 132 226 90 402 338 1554 355 1646 16
93 -25 123 -151 107z m-48 -206 c-5 -19 -10 -40 -52 -243 -113 -543 -239
-1097 -265 -1165 l-11 -30 -81 125 c-45 69 -206 319 -358 555 -152 237 -302
469 -333 517 -32 48 -57 92 -57 97 0 5 21 14 48 19 66 15 371 59 597 87 72 8
195 24 275 34 80 11 167 19 193 20 41 1 48 -2 44 -16z"/>
<path d="M9788 10705 c-193 -56 -366 -203 -429 -365 -30 -75 -31 -171 -2 -225
26 -50 47 -69 105 -95 234 -103 625 103 717 378 81 241 -108 390 -391 307z"/>
<path d="M8222 10158 c-63 -9 -137 -45 -174 -85 -84 -88 -76 -241 18 -352 16
-19 79 -76 140 -127 125 -104 163 -147 199 -227 35 -76 48 -158 41 -255 -19
-234 -2 -343 61 -413 52 -58 106 -83 178 -83 151 -2 289 130 390 369 75 179
95 222 160 340 117 215 133 326 64 455 -60 114 -126 151 -391 221 -81 21 -198
58 -260 82 -186 73 -304 93 -426 75z"/>
<path d="M17355 10020 c-41 -7 -61 -52 -75 -165 -28 -239 -44 -341 -52 -352
-12 -15 -74 -21 -248 -26 -110 -3 -145 -8 -183 -25 -26 -12 -50 -28 -53 -36
-12 -30 -11 -52 2 -78 24 -46 112 -59 266 -38 137 18 161 19 180 9 22 -12 22
2 -7 -224 -23 -178 -24 -198 -9 -226 16 -32 62 -50 101 -40 45 11 59 56 87
286 14 115 29 212 34 216 8 8 74 14 377 34 50 4 99 9 110 12 65 17 88 98 40
143 -24 23 -26 23 -187 15 -90 -4 -197 -8 -238 -9 l-75 -1 -1 43 c0 24 5 85
13 135 24 166 28 273 10 300 -17 27 -47 36 -92 27z"/>
<path d="M10055 9985 c-150 -23 -266 -77 -357 -167 -71 -69 -99 -127 -99 -208
-2 -289 535 -347 824 -89 107 95 140 225 83 323 -68 116 -248 172 -451 141z"/>
<path d="M2085 9570 c-107 -23 -199 -135 -240 -290 -25 -92 -23 -252 4 -353
89 -340 385 -416 527 -136 103 204 77 511 -57 680 -56 71 -159 114 -234 99z"/>
<path d="M2890 9441 c-124 -38 -251 -183 -310 -357 -46 -133 -47 -306 -1 -409
23 -52 75 -111 115 -132 50 -26 143 -22 208 10 314 154 409 767 136 881 -39
17 -106 20 -148 7z"/>
<path d="M9493 9250 c-104 -22 -191 -78 -225 -143 -59 -116 -2 -252 145 -345
114 -71 222 -103 357 -103 170 0 294 55 348 156 24 44 21 140 -5 191 -49 93
-171 182 -308 224 -79 24 -244 35 -312 20z"/>
<path d="M57516 9105 c-26 -28 -33 -55 -41 -160 -12 -158 -17 -190 -35 -225
-10 -19 -29 -41 -42 -48 -34 -19 -111 -21 -219 -7 -237 31 -322 7 -379 -108
-32 -65 -49 -142 -73 -329 -16 -123 -38 -173 -87 -200 -46 -24 -94 -23 -238 7
-150 31 -184 31 -249 1 -95 -45 -146 -150 -203 -421 -38 -178 -55 -232 -83
-262 -43 -47 -96 -20 -192 97 -67 81 -96 95 -141 65 -74 -48 33 -242 175 -314
88 -46 195 -37 266 21 75 62 108 142 150 362 33 172 59 257 85 281 26 24 61
23 175 -5 100 -24 219 -29 280 -12 101 29 178 109 211 217 8 28 24 119 35 204
21 162 36 213 66 229 19 9 87 7 188 -8 33 -5 106 -7 161 -6 88 2 109 6 158 30
116 57 144 129 172 452 7 80 -7 138 -36 154 -34 18 -79 12 -104 -15z"/>
<path d="M1334 8951 c-82 -38 -124 -125 -124 -258 0 -108 12 -157 67 -271 95
-199 290 -331 433 -292 181 49 214 336 68 585 -115 194 -311 299 -444 236z"/>
<path d="M3314 8650 c-164 -52 -324 -213 -385 -386 -16 -46 -20 -77 -17 -145
3 -80 6 -91 34 -126 16 -21 50 -48 75 -61 38 -20 55 -23 125 -20 70 4 93 10
166 45 199 96 348 306 348 490 -1 184 -143 267 -346 203z"/>
<path d="M2282 8384 c-94 -24 -145 -61 -317 -224 -57 -54 -144 -128 -193 -164
-123 -90 -232 -207 -272 -291 -60 -125 -51 -240 24 -317 55 -57 99 -73 196
-73 75 0 102 6 235 50 140 47 157 50 250 50 90 0 107 -3 164 -30 36 -16 105
-58 155 -94 180 -127 263 -160 362 -142 124 23 196 117 195 252 -1 132 -55
260 -175 423 -69 92 -93 130 -213 338 -27 45 -71 105 -100 134 -82 83 -200
117 -311 88z"/>
<path d="M29403 8182 c-13 -2 -31 -14 -42 -28 -21 -27 -28 -75 -36 -264 -7
-151 -13 -211 -24 -222 -3 -4 -86 12 -183 36 -197 50 -241 57 -279 44 -27 -9
-49 -44 -49 -79 0 -58 37 -75 300 -139 96 -23 183 -47 193 -52 21 -11 22 -69
6 -243 -14 -140 -7 -205 25 -242 27 -31 77 -34 107 -7 30 27 40 79 46 249 3
88 9 167 14 176 10 20 33 16 232 -36 172 -45 213 -47 244 -11 29 34 29 78 1
111 -19 21 -56 34 -234 79 -117 29 -217 57 -224 61 -12 8 -11 104 6 410 3 62
1 97 -8 114 -15 28 -62 49 -95 43z"/>
<path d="M35852 7163 c-32 -13 -42 -65 -58 -285 -9 -123 -21 -228 -26 -235
-13 -16 -91 -30 -203 -38 -185 -12 -266 -39 -280 -92 -10 -41 12 -80 53 -94
42 -14 165 -7 274 16 43 9 92 15 110 13 l33 -3 -1 -75 c0 -41 -4 -140 -9 -220
-7 -140 -6 -146 14 -167 22 -23 34 -27 81 -25 28 1 70 44 70 71 0 16 6 93 26
356 3 44 8 83 10 86 2 4 30 10 61 13 198 24 427 58 442 66 47 25 59 96 23 132
-28 29 -81 29 -282 2 -96 -13 -188 -23 -204 -24 l-29 0 9 143 c5 78 9 184 9
235 0 86 -2 95 -24 113 -22 18 -70 24 -99 12z"/>
<path d="M46453 4769 c-206 -102 -298 -500 -173 -755 173 -355 557 -126 558
334 0 199 -78 371 -193 423 -55 25 -139 24 -192 -2z"/>
<path d="M45635 4697 c-113 -52 -177 -192 -170 -372 7 -167 74 -334 178 -438
77 -78 141 -110 219 -109 94 1 154 42 201 137 120 242 -5 649 -235 766 -53 27
-151 35 -193 16z"/>
<path d="M14374 4391 c-18 -4 -48 -18 -68 -30 -109 -68 -128 -257 -43 -440 68
-149 219 -295 353 -342 60 -21 176 -25 221 -8 107 40 159 193 118 349 -46 179
-188 354 -345 429 -90 42 -175 58 -236 42z"/>
<path d="M15252 4359 c-97 -49 -154 -178 -154 -350 0 -266 170 -519 350 -521
276 -2 340 509 98 789 -81 93 -205 128 -294 82z"/>
<path d="M21745 4275 c-335 -64 -628 -327 -712 -639 -22 -82 -21 -241 1 -325
35 -130 118 -262 232 -372 132 -126 286 -207 454 -239 78 -15 261 -13 336 5
191 44 343 155 420 307 81 160 66 388 -35 545 -77 119 -172 188 -307 224 -176
46 -352 -5 -472 -136 -69 -75 -95 -147 -90 -240 8 -122 64 -212 164 -261 47
-23 63 -26 114 -21 139 12 232 122 185 220 -32 68 -107 69 -146 2 -71 -120
-184 28 -119 156 23 45 91 93 155 110 67 19 174 6 234 -26 170 -93 242 -316
157 -489 -114 -233 -448 -304 -746 -159 -80 40 -109 61 -185 137 -103 104
-156 194 -180 311 -19 89 -18 134 0 214 26 108 77 191 174 284 198 187 469
275 671 217 111 -32 146 -35 175 -16 18 12 25 25 25 50 0 108 -277 185 -505
141z"/>
<path d="M39969 4194 c-10 -25 -6 -328 6 -462 1 -18 5 -133 9 -255 4 -122 8
-265 11 -317 2 -52 7 -189 10 -305 10 -376 20 -540 40 -639 24 -114 64 -134
137 -68 52 47 1047 1122 1241 1341 71 80 59 136 -41 178 -20 8 -274 118 -563
243 -602 261 -702 300 -781 308 -56 5 -58 4 -69 -24z m375 -275 c316 -127 876
-372 876 -383 0 -13 -674 -747 -887 -965 -67 -69 -124 -124 -126 -121 -3 3 -8
88 -11 190 -4 102 -9 221 -11 265 -4 76 -8 161 -20 465 -3 74 -7 180 -10 235
-3 55 -8 165 -11 244 l-6 144 28 -7 c16 -4 96 -34 178 -67z"/>
<path d="M47133 4141 c-140 -48 -266 -182 -335 -355 -28 -73 -32 -92 -32 -191
-1 -104 1 -113 29 -165 41 -74 95 -105 185 -105 54 0 77 6 133 33 308 152 440
659 203 777 -59 30 -111 31 -183 6z"/>
<path d="M45135 3951 c-223 -55 -216 -369 14 -601 307 -309 663 -178 540 198
-79 241 -365 449 -554 403z"/>
<path d="M13820 3771 c-197 -60 -224 -273 -59 -471 166 -200 473 -299 650
-209 185 93 138 370 -94 545 -74 56 -201 118 -275 133 -59 12 -184 13 -222 2z"/>
<path d="M57415 3647 c-18 -28 -17 -24 -105 -557 -38 -234 -90 -542 -115 -685
-117 -679 -127 -804 -61 -821 47 -11 19 -30 866 579 680 490 742 536 756 566
19 37 -2 78 -60 122 -79 60 -857 603 -991 692 -199 132 -258 153 -290 104z
m367 -375 c330 -220 723 -499 723 -514 0 -11 -225 -178 -665 -492 -335 -240
-529 -371 -537 -363 -3 4 6 78 20 164 24 142 67 405 127 778 60 371 92 560 96
566 6 10 67 -26 236 -139z"/>
<path d="M46174 3617 c-108 -28 -172 -91 -309 -302 -54 -82 -126 -184 -160
-225 -34 -41 -80 -103 -103 -137 -153 -238 -128 -476 58 -538 104 -35 200 -8
366 100 226 147 327 164 532 89 274 -100 305 -106 398 -79 73 21 146 89 163
150 44 161 -45 331 -276 524 -60 49 -167 150 -239 224 -104 107 -143 140 -195
166 -76 37 -160 47 -235 28z"/>
<path d="M7992 3584 c-230 -78 -384 -280 -383 -503 0 -98 13 -156 55 -239 81
-159 259 -266 411 -247 264 33 382 356 177 486 -80 51 -142 51 -193 -1 -55
-55 -30 -124 51 -138 33 -6 48 -14 59 -34 14 -24 14 -30 -1 -62 -21 -42 -81
-76 -135 -76 -118 1 -237 134 -250 280 -17 181 151 367 345 384 203 17 408
-165 466 -414 20 -84 20 -256 0 -340 -53 -228 -236 -422 -438 -465 -124 -26
-258 -2 -394 70 -112 60 -203 134 -274 223 -93 117 -132 210 -144 338 -5 51
-13 83 -26 99 -37 47 -108 23 -124 -41 -13 -51 3 -208 29 -283 92 -263 344
-483 646 -563 102 -27 280 -29 371 -5 252 67 444 280 522 579 29 110 32 331 5
427 -45 163 -103 266 -212 376 -84 85 -181 143 -275 164 -84 19 -208 13 -288
-15z"/>
<path d="M52117 3485 c-137 -35 -274 -138 -335 -253 -103 -193 -76 -423 67
-569 69 -70 137 -98 236 -97 123 1 219 54 267 148 43 82 20 213 -46 275 -67
63 -186 34 -186 -46 0 -26 9 -43 40 -73 37 -36 39 -41 29 -70 -22 -62 -111
-79 -185 -35 -139 82 -145 323 -10 454 75 73 207 119 302 106 209 -28 346
-202 345 -440 0 -259 -147 -496 -381 -619 -254 -133 -510 -77 -687 148 -177
227 -231 527 -133 743 43 95 41 145 -6 164 -63 23 -137 -59 -182 -201 -30 -96
-34 -123 -34 -234 1 -380 278 -759 623 -852 43 -12 99 -17 170 -17 90 1 119 5
200 33 370 123 634 508 606 881 -21 263 -153 459 -365 539 -75 29 -250 37
-335 15z"/>
<path d="M14989 3357 c-103 -30 -172 -89 -217 -187 -35 -75 -34 -193 2 -389
15 -79 29 -193 32 -255 12 -223 59 -378 146 -472 81 -89 193 -112 294 -61 93
47 132 114 185 312 42 159 76 233 141 301 65 69 99 89 263 154 72 28 146 61
165 72 209 124 195 373 -26 475 -87 39 -184 55 -329 53 -71 -1 -152 -2 -180
-3 -27 0 -135 3 -240 6 -143 5 -201 4 -236 -6z"/>
<path d="M35104 2959 c-35 -17 -53 -63 -80 -195 -26 -132 -46 -185 -84 -219
-31 -28 -99 -24 -258 15 -142 35 -242 41 -289 16 -79 -40 -133 -142 -182 -342
-65 -261 -112 -289 -354 -204 -199 69 -263 64 -350 -29 -56 -60 -92 -129 -151
-296 -26 -71 -58 -158 -72 -193 -30 -71 -72 -113 -105 -105 -31 9 -81 62 -124
135 -53 88 -63 98 -100 98 -139 0 -46 -270 124 -357 109 -57 202 -42 292 44
52 50 80 107 142 288 65 190 78 221 107 258 29 37 51 35 209 -19 126 -44 139
-46 215 -42 97 5 163 35 220 98 51 56 68 98 116 280 42 157 51 182 78 213 20
23 36 22 182 -13 177 -42 279 -48 352 -21 62 24 120 79 145 139 29 70 74 259
80 338 6 79 5 81 -22 102 -30 24 -57 27 -91 11z"/>
<path d="M14092 2908 c-195 -22 -322 -125 -322 -259 0 -176 218 -319 488 -319
186 0 327 62 385 169 119 218 -194 451 -551 409z"/>
<path d="M27712 2864 c-29 -20 -58 -78 -117 -233 -57 -152 -84 -211 -96 -211
-11 0 -15 2 -194 118 -196 126 -247 137 -279 60 -28 -66 -1 -97 189 -213 218
-135 218 -134 212 -175 -2 -19 -26 -82 -52 -140 -92 -204 -105 -271 -60 -315
31 -32 66 -32 103 0 35 29 63 86 107 215 38 113 61 160 78 160 7 0 55 -28 107
-62 165 -107 253 -158 271 -158 69 0 113 81 74 137 -8 12 -98 74 -200 139
-126 80 -185 123 -185 135 0 10 38 115 85 233 47 119 85 227 85 242 0 32 -50
84 -82 84 -13 0 -34 -7 -46 -16z"/>
<path d="M1564 2745 c-82 -34 -74 -79 55 -294 128 -215 128 -214 108 -244 -8
-13 -71 -68 -138 -123 -122 -98 -179 -165 -179 -210 0 -35 37 -74 71 -74 50 0
104 36 225 150 63 61 119 110 123 110 16 0 51 -50 135 -193 48 -82 96 -157
107 -168 28 -28 84 -25 114 6 45 44 36 72 -89 285 -63 107 -112 199 -108 206
4 6 75 70 157 143 205 181 215 192 215 239 0 72 -69 104 -135 64 -16 -10 -83
-66 -147 -125 -119 -107 -180 -157 -191 -157 -8 0 -61 83 -141 222 -88 154
-125 187 -182 163z"/>
</g>
</svg>
