<svg xmlns="http://www.w3.org/2000/svg" viewBox="0 0 90 90"><defs><style>.cls-1{fill:#b3b3b3;fill-rule:evenodd;}.cls-2{fill:#444;}.cls-3{fill:#e6e6e6;}.cls-4{fill:#4d4d4d;}.cls-5{fill:#333;}.cls-6{fill:#ffb5d2;}.cls-7{fill:#de719c;}</style></defs><title>cow</title><g id="cow"><path class="cls-1" d="M75,9.36a27,27,0,0,1-20.33,26.4,1.17,1.17,0,0,1-1.31-.58l-5.61-9.94a1.22,1.22,0,0,1,0-1.22,1.16,1.16,0,0,1,1-.62,26.52,26.52,0,0,0,23.9-16A1.18,1.18,0,0,1,74,6.69a1.2,1.2,0,0,1,1,1.13C75,8.33,75,8.84,75,9.36Z"/><path class="cls-1" d="M15,9.36a27,27,0,0,0,20.33,26.4,1.17,1.17,0,0,0,1.31-.58l5.61-9.94a1.22,1.22,0,0,0,0-1.22,1.16,1.16,0,0,0-1-.62,26.53,26.53,0,0,1-23.9-16A1.18,1.18,0,0,0,16,6.69a1.2,1.2,0,0,0-1,1.13C15,8.33,15,8.84,15,9.36Z"/><path class="cls-2" d="M66.82,30.86H85A12.27,12.27,0,0,1,72.88,43.27H68.09Z"/><path class="cls-2" d="M23.18,30.86H5A12.27,12.27,0,0,0,17.12,43.27h4.78Z"/><ellipse class="cls-3" cx="45" cy="52.42" rx="30.83" ry="30.91"/><ellipse class="cls-4" cx="59.07" cy="44.22" rx="15.45" ry="15.91"/><ellipse class="cls-5" cx="27.87" cy="46.66" rx="3.08" ry="3.18"/><ellipse class="cls-5" cx="62.13" cy="46.66" rx="3.08" ry="3.18"/><ellipse class="cls-6" cx="45" cy="64.07" rx="22.65" ry="15.66"/><ellipse class="cls-7" cx="33.47" cy="64.55" rx="3.33" ry="3.34"/><ellipse class="cls-7" cx="56.53" cy="64.55" rx="3.33" ry="3.34"/></g></svg>